<svg id="Layer_1" data-name="Layer 1" xmlns="http://www.w3.org/2000/svg" viewBox="0 0 480.09 100.74"><defs><style>.cls-1{fill:#04acd7;}</style></defs><g id="Version_Two" data-name="Version Two"><path class="cls-1" d="M42.59,90.33a37.69,37.69,0,0,1-15-2.83,28,28,0,0,1-16.8-20.28,39.76,39.76,0,0,1-.07-15.63,44.5,44.5,0,0,1,5.7-15.37A47.82,47.82,0,0,1,26.81,24,47.07,47.07,0,0,1,40.72,16,46,46,0,0,1,57,13.06a37.34,37.34,0,0,1,10.21,1.38A30.21,30.21,0,0,1,76,18.54,24.47,24.47,0,0,1,82.48,25L69.15,37.69a24.17,24.17,0,0,0-4-4.11,16.4,16.4,0,0,0-5-2.72,19.19,19.19,0,0,0-6.22-.95,23.29,23.29,0,0,0-8.34,1.54,24.87,24.87,0,0,0-7.38,4.38,25.6,25.6,0,0,0-5.64,6.88,28,28,0,0,0-3.2,9.06,22.79,22.79,0,0,0,0,8.92,16.17,16.17,0,0,0,3.26,6.88,14.84,14.84,0,0,0,6.21,4.37,24.46,24.46,0,0,0,8.87,1.49,22.93,22.93,0,0,0,6.68-1,28.73,28.73,0,0,0,6.17-2.61,31.3,31.3,0,0,0,5.31-3.79l6.3,13.87a32.14,32.14,0,0,1-8,5.34A50.57,50.57,0,0,1,53.66,89,45.47,45.47,0,0,1,42.59,90.33Z" transform="translate(-9.95 -13.06)"/><path class="cls-1" d="M107.57,90.33A28.13,28.13,0,0,1,92.5,86.49a22.52,22.52,0,0,1-9-10.46,26.28,26.28,0,0,1-1.33-15.15,33.79,33.79,0,0,1,6.68-15.16,37.46,37.46,0,0,1,12.73-10.45A35.76,35.76,0,0,1,118,31.42,28.1,28.1,0,0,1,133,35.27a22.07,22.07,0,0,1,9,10.45,26.49,26.49,0,0,1,1.28,15.16A34.14,34.14,0,0,1,136.68,76,37.24,37.24,0,0,1,124,86.49,35.86,35.86,0,0,1,107.57,90.33Zm2.59-14.73a14.09,14.09,0,0,0,7.17-1.92,17.23,17.23,0,0,0,5.61-5.22,17.63,17.63,0,0,0,2.94-7.58,14.76,14.76,0,0,0-.25-7.64A10.31,10.31,0,0,0,121.86,48,10.75,10.75,0,0,0,115.37,46,14.31,14.31,0,0,0,108.16,48a17,17,0,0,0-5.68,5.28,18.36,18.36,0,0,0-3,7.64,14.4,14.4,0,0,0,.26,7.58,10.32,10.32,0,0,0,3.83,5.22A11,11,0,0,0,110.16,75.6Z" transform="translate(-9.95 -13.06)"/><path class="cls-1" d="M145.33,112.74,159.46,32.6h16.22l-1.59,12.7-3-1a16.21,16.21,0,0,1,4.76-6.4,27.07,27.07,0,0,1,8.12-4.64,27.61,27.61,0,0,1,9.65-1.76,19.66,19.66,0,0,1,12.24,3.79,20.24,20.24,0,0,1,7.08,10.36,31.54,31.54,0,0,1,.58,15.2A39.05,39.05,0,0,1,207.56,76a33.76,33.76,0,0,1-10.8,10.41A26.48,26.48,0,0,1,183,90.24a21.55,21.55,0,0,1-8.87-1.81,16.74,16.74,0,0,1-6.49-4.91,12.4,12.4,0,0,1-2.76-6.71l4.22-1.5-6.6,37.45h-17.2Zm36.06-36.92a13.77,13.77,0,0,0,7.06-1.88,16.32,16.32,0,0,0,5.4-5.17,20.78,20.78,0,0,0,3-7.89,17.14,17.14,0,0,0-.22-7.85,9.91,9.91,0,0,0-3.5-5.24,10.54,10.54,0,0,0-6.45-1.87,14.31,14.31,0,0,0-7.15,1.81A15.31,15.31,0,0,0,174.13,53a21.18,21.18,0,0,0-3,7.89,16.89,16.89,0,0,0,.21,7.9,9.72,9.72,0,0,0,3.57,5.17A10.46,10.46,0,0,0,181.39,75.82Z" transform="translate(-9.95 -13.06)"/><path class="cls-1" d="M220.47,113.8l18.28-30.4-1.33,8.75L220.6,32.6h19.31l6.93,28.49a44.82,44.82,0,0,1,1,4.59,30.41,30.41,0,0,1,.45,4.7l-2.58,1.38c.61-1.07,1.33-2.4,2.14-4s1.71-3.33,2.68-5.18l15.74-30h19.42L251.58,89.26,237.43,113.8Z" transform="translate(-9.95 -13.06)"/><path class="cls-1" d="M320.11,90.33a39.7,39.7,0,0,1-15.7-2.88A27.84,27.84,0,0,1,287.52,67a40,40,0,0,1,0-15.41,44.66,44.66,0,0,1,5.64-15.32,46.7,46.7,0,0,1,10.53-12.21,48.64,48.64,0,0,1,31-11A38.58,38.58,0,0,1,346,14.68a32.64,32.64,0,0,1,9.2,4.38,24.55,24.55,0,0,1,6.45,6.4l-13,11.63a24.43,24.43,0,0,0-4.74-4.27,23.12,23.12,0,0,0-5.55-2.73,21,21,0,0,0-6.66-1,23.47,23.47,0,0,0-8.88,1.7,27.2,27.2,0,0,0-13.47,11.91,27.33,27.33,0,0,0-3.18,8.91,22,22,0,0,0,.12,9,18,18,0,0,0,3.43,7.21,17.18,17.18,0,0,0,6.25,4.81,20.83,20.83,0,0,0,14.92.69,20.53,20.53,0,0,0,5.57-2.88,18.06,18.06,0,0,0,4.18-4.32,13.43,13.43,0,0,0,2.24-5.38l.49-2.78,1.7,3.63h-20.6l2.5-14.18H362a26.86,26.86,0,0,1-.24,3.2c-.16,1.35-.35,2.66-.54,3.94s-.34,2.25-.45,2.87a37.89,37.89,0,0,1-5,13.29,39.91,39.91,0,0,1-9.14,10.4,42.49,42.49,0,0,1-26.59,9.27Z" transform="translate(-9.95 -13.06)"/><path class="cls-1" d="M429.78,89.26l10-56.66H456l-1.5,11.53-3.64,1.28a21.82,21.82,0,0,1,5.45-7,29.71,29.71,0,0,1,8.2-5.07,24,24,0,0,1,9.3-1.93q6.4,0,10.32,2.62a12.78,12.78,0,0,1,5.25,7.79,30.16,30.16,0,0,1,0,12.64l-6.14,34.79H466.06L472,55.87a13.74,13.74,0,0,0,0-5.65,5.37,5.37,0,0,0-2.35-3.37,8.08,8.08,0,0,0-4.68-1,13,13,0,0,0-4.28.69,11.72,11.72,0,0,0-3.67,2,13.49,13.49,0,0,0-2.72,3,10.16,10.16,0,0,0-1.46,3.72l-6,33.94H429.78Z" transform="translate(-9.95 -13.06)"/><path class="cls-1" d="M385.42,43.43a.51.51,0,0,1-.5-.77l2.34-5.27a1.45,1.45,0,0,1,1.2-.78l36.75,0a.56.56,0,0,1,.56.8l-1.9,5.23a1.28,1.28,0,0,1-1.13.79Z" transform="translate(-9.95 -13.06)"/><path class="cls-1" d="M369.83,60.26a.51.51,0,0,1-.51-.76l2.35-5.28a1.49,1.49,0,0,1,1.2-.78l47-.06a.68.68,0,0,1,.69.83l-1,5.16a1.08,1.08,0,0,1-1,.83Z" transform="translate(-9.95 -13.06)"/><path class="cls-1" d="M395,77.06a.59.59,0,0,1-.59-.81L396,71a1.24,1.24,0,0,1,1.09-.8l20.48,0a.79.79,0,0,1,.8.84l-.27,5.13a.9.9,0,0,1-.89.84Z" transform="translate(-9.95 -13.06)"/></g></svg>